<?xml version="1.0" ?>
<svg xmlns="http://www.w3.org/2000/svg" width="1241" height="1754" viewBox="0 0 1241 1754">
  <style>
        .header { font-family: Times, serif; font-size: 14px; font-weight: bold; fill: #000; }
        .title { font-family: Times, serif; font-size: 16px; font-weight: bold; fill: #000; }
        .course-info { font-family: Times, serif; font-size: 11px; fill: #000; }
        .question-number { font-family: Times, serif; font-size: 12px; font-weight: bold; fill: #000; }
        .question-text { font-family: Times, serif; font-size: 11px; fill: #000; }
        .table-header { font-family: Times, serif; font-size: 10px; font-weight: bold; fill: #000; text-anchor: middle; }
        .table-cell { font-family: Times, serif; font-size: 10px; fill: #000; text-anchor: middle; }
        .instructions { font-family: Times, serif; font-size: 12px; font-style: italic; fill: #000; }
        .classification { font-family: Times, serif; font-size: 9px; fill: #000; text-anchor: middle; }
        .marks { font-family: Times, serif; font-size: 10px; font-weight: bold; fill: #000; text-anchor: middle; }
        .text-block { font-family: Times, serif; font-size: 11px; fill: #000; }
        .other-text { font-family: Times, serif; font-size: 10px; fill: #000; }
        .border { fill: none; stroke: #000; stroke-width: 1; }
        .line { fill: none; stroke: #000; stroke-width: 0.5; }
        </style>
  <g id="borders">
    <rect x="845" y="19" width="388" height="134" class="unknown" id="border_0"/>
    <rect x="29" y="30" width="12" height="84" class="line" id="border_1"/>
    <rect x="63" y="31" width="5" height="54" class="line" id="border_2"/>
    <rect x="14" y="33" width="55" height="4" class="line" id="border_3"/>
    <rect x="90" y="45" width="171" height="23" class="unknown" id="border_4"/>
    <rect x="174" y="76" width="20" height="14" class="unknown" id="border_5"/>
    <rect x="15" y="87" width="54" height="1" class="line" id="border_6"/>
    <rect x="369" y="231" width="18" height="3" class="line" id="border_7"/>
    <rect x="555" y="234" width="167" height="3" class="border" id="border_8"/>
    <rect x="765" y="306" width="11" height="23" class="line" id="border_9"/>
    <rect x="738" y="319" width="18" height="2" class="line" id="border_10"/>
    <rect x="269" y="397" width="61" height="1" class="line" id="border_11"/>
    <rect x="839" y="401" width="288" height="5" class="border" id="border_12"/>
    <rect x="638" y="403" width="178" height="3" class="border" id="border_13"/>
    <rect x="376" y="404" width="67" height="3" class="line" id="border_14"/>
    <rect x="1117" y="423" width="87" height="3" class="line" id="border_15"/>
    <rect x="314" y="425" width="84" height="1" class="line" id="border_16"/>
    <rect x="1132" y="426" width="72" height="2" class="line" id="border_17"/>
    <rect x="325" y="441" width="74" height="2" class="line" id="border_18"/>
    <rect x="654" y="443" width="146" height="2" class="border" id="border_19"/>
    <rect x="988" y="466" width="74" height="2" class="line" id="border_20"/>
    <rect x="975" y="467" width="54" height="2" class="line" id="border_21"/>
    <rect x="1130" y="468" width="74" height="2" class="line" id="border_22"/>
    <rect x="1000" y="508" width="113" height="1" class="border" id="border_23"/>
    <rect x="105" y="509" width="5" height="52" class="line" id="border_24"/>
    <rect x="108" y="509" width="3" height="52" class="line" id="border_25"/>
    <rect x="849" y="509" width="113" height="1" class="border" id="border_26"/>
    <rect x="1150" y="667" width="7" height="42" class="line" id="border_27"/>
    <rect x="119" y="700" width="1" height="113" class="border" id="border_28"/>
    <rect x="66" y="760" width="1" height="113" class="border" id="border_29"/>
    <rect x="203" y="768" width="228" height="3" class="border" id="border_30"/>
    <rect x="201" y="770" width="228" height="3" class="border" id="border_31"/>
    <rect x="471" y="773" width="76" height="1" class="line" id="border_32"/>
    <rect x="1191" y="807" width="11" height="16" class="line" id="border_33"/>
    <rect x="206" y="809" width="118" height="2" class="border" id="border_34"/>
    <rect x="287" y="811" width="10" height="12" class="line" id="border_35"/>
    <rect x="206" y="813" width="69" height="7" class="line" id="border_36"/>
    <rect x="238" y="821" width="131" height="2" class="border" id="border_37"/>
    <rect x="1004" y="824" width="2" height="2" class="line" id="border_38"/>
    <rect x="65" y="846" width="55" height="1" class="line" id="border_39"/>
    <rect x="144" y="846" width="83" height="1" class="line" id="border_40"/>
    <rect x="228" y="847" width="113" height="1" class="border" id="border_41"/>
    <rect x="262" y="849" width="56" height="1" class="line" id="border_42"/>
    <rect x="112" y="850" width="12" height="36" class="line" id="border_43"/>
    <rect x="89" y="854" width="12" height="16" class="line" id="border_44"/>
    <rect x="485" y="862" width="72" height="1" class="line" id="border_45"/>
    <rect x="554" y="864" width="61" height="1" class="line" id="border_46"/>
    <rect x="787" y="864" width="98" height="1" class="line" id="border_47"/>
    <rect x="554" y="867" width="103" height="1" class="border" id="border_48"/>
    <rect x="768" y="867" width="117" height="2" class="border" id="border_49"/>
    <rect x="768" y="868" width="117" height="3" class="border" id="border_50"/>
    <rect x="439" y="869" width="249" height="4" class="border" id="border_51"/>
    <rect x="798" y="870" width="169" height="5" class="border" id="border_52"/>
    <rect x="1089" y="885" width="12" height="36" class="line" id="border_53"/>
    <rect x="1152" y="885" width="9" height="36" class="line" id="border_54"/>
    <rect x="282" y="888" width="232" height="4" class="border" id="border_55"/>
    <rect x="136" y="889" width="150" height="3" class="border" id="border_56"/>
    <rect x="138" y="890" width="148" height="3" class="border" id="border_57"/>
    <rect x="135" y="891" width="151" height="3" class="border" id="border_58"/>
    <rect x="300" y="892" width="78" height="1" class="line" id="border_59"/>
    <rect x="821" y="892" width="143" height="7" class="border" id="border_60"/>
    <rect x="301" y="893" width="76" height="1" class="line" id="border_61"/>
    <rect x="298" y="895" width="182" height="3" class="border" id="border_62"/>
    <rect x="601" y="898" width="154" height="2" class="border" id="border_63"/>
    <rect x="580" y="899" width="114" height="2" class="border" id="border_64"/>
    <rect x="231" y="900" width="57" height="1" class="line" id="border_65"/>
    <rect x="353" y="900" width="70" height="1" class="line" id="border_66"/>
    <rect x="509" y="901" width="162" height="2" class="border" id="border_67"/>
    <rect x="706" y="901" width="208" height="3" class="border" id="border_68"/>
    <rect x="903" y="902" width="106" height="1" class="border" id="border_69"/>
    <rect x="65" y="935" width="2" height="153" class="border" id="border_70"/>
    <rect x="67" y="944" width="2" height="144" class="border" id="border_71"/>
    <rect x="68" y="952" width="63" height="1" class="line" id="border_72"/>
    <rect x="163" y="953" width="8" height="53" class="line" id="border_73"/>
    <rect x="179" y="953" width="75" height="3" class="line" id="border_74"/>
    <rect x="114" y="956" width="9" height="36" class="line" id="border_75"/>
    <rect x="91" y="965" width="9" height="11" class="line" id="border_76"/>
    <rect x="263" y="966" width="71" height="1" class="line" id="border_77"/>
    <rect x="137" y="968" width="171" height="3" class="border" id="border_78"/>
    <rect x="496" y="968" width="11" height="12" class="line" id="border_79"/>
    <rect x="419" y="975" width="407" height="7" class="border" id="border_80"/>
    <rect x="879" y="976" width="112" height="1" class="border" id="border_81"/>
    <rect x="742" y="977" width="141" height="4" class="border" id="border_82"/>
    <rect x="865" y="977" width="144" height="5" class="border" id="border_83"/>
    <rect x="1192" y="995" width="11" height="16" class="line" id="border_84"/>
    <rect x="418" y="1033" width="113" height="1" class="border" id="border_85"/>
    <rect x="549" y="1034" width="94" height="1" class="line" id="border_86"/>
    <rect x="119" y="1035" width="12" height="33" class="line" id="border_87"/>
    <rect x="842" y="1037" width="113" height="1" class="border" id="border_88"/>
    <rect x="543" y="1048" width="139" height="2" class="border" id="border_89"/>
    <rect x="365" y="1050" width="137" height="2" class="border" id="border_90"/>
    <rect x="515" y="1050" width="167" height="2" class="border" id="border_91"/>
    <rect x="515" y="1051" width="174" height="7" class="border" id="border_92"/>
    <rect x="345" y="1054" width="154" height="2" class="border" id="border_93"/>
    <rect x="123" y="1056" width="1" height="113" class="border" id="border_94"/>
    <rect x="1192" y="1060" width="11" height="16" class="line" id="border_95"/>
    <rect x="583" y="1084" width="110" height="1" class="border" id="border_96"/>
    <rect x="113" y="1085" width="12" height="35" class="line" id="border_97"/>
    <rect x="748" y="1086" width="171" height="2" class="border" id="border_98"/>
    <rect x="754" y="1088" width="228" height="3" class="border" id="border_99"/>
    <rect x="91" y="1089" width="12" height="16" class="line" id="border_100"/>
    <rect x="139" y="1095" width="353" height="6" class="border" id="border_101"/>
    <rect x="770" y="1099" width="11" height="12" class="line" id="border_102"/>
    <rect x="504" y="1100" width="250" height="5" class="border" id="border_103"/>
    <rect x="214" y="1102" width="184" height="4" class="border" id="border_104"/>
    <rect x="771" y="1110" width="212" height="4" class="border" id="border_105"/>
    <rect x="1193" y="1111" width="10" height="16" class="line" id="border_106"/>
    <rect x="653" y="1135" width="113" height="1" class="border" id="border_107"/>
    <rect x="116" y="1136" width="12" height="36" class="line" id="border_108"/>
    <rect x="720" y="1138" width="286" height="4" class="border" id="border_109"/>
    <rect x="1053" y="1141" width="81" height="1" class="line" id="border_110"/>
    <rect x="93" y="1145" width="9" height="11" class="line" id="border_111"/>
    <rect x="141" y="1146" width="306" height="5" class="border" id="border_112"/>
    <rect x="201" y="1151" width="301" height="5" class="border" id="border_113"/>
    <rect x="516" y="1154" width="416" height="7" class="border" id="border_114"/>
    <rect x="408" y="1156" width="53" height="1" class="line" id="border_115"/>
    <rect x="360" y="1157" width="76" height="1" class="line" id="border_116"/>
    <rect x="784" y="1160" width="156" height="2" class="border" id="border_117"/>
    <rect x="195" y="1174" width="112" height="2" class="border" id="border_118"/>
    <rect x="178" y="1175" width="113" height="2" class="border" id="border_119"/>
    <rect x="642" y="1175" width="67" height="1" class="line" id="border_120"/>
    <rect x="137" y="1176" width="77" height="1" class="line" id="border_121"/>
    <rect x="625" y="1176" width="11" height="13" class="line" id="border_122"/>
    <rect x="919" y="1176" width="11" height="18" class="line" id="border_123"/>
    <rect x="146" y="1179" width="154" height="2" class="border" id="border_124"/>
    <rect x="177" y="1181" width="312" height="5" class="border" id="border_125"/>
    <rect x="470" y="1181" width="205" height="3" class="border" id="border_126"/>
    <rect x="692" y="1181" width="219" height="4" class="border" id="border_127"/>
    <rect x="898" y="1181" width="14" height="6" class="line" id="border_128"/>
    <rect x="470" y="1182" width="209" height="4" class="border" id="border_129"/>
    <rect x="435" y="1183" width="218" height="4" class="border" id="border_130"/>
    <rect x="784" y="1184" width="101" height="2" class="border" id="border_131"/>
    <rect x="786" y="1188" width="104" height="1" class="border" id="border_132"/>
    <rect x="656" y="1241" width="14" height="18" class="line" id="border_133"/>
    <rect x="539" y="1285" width="12" height="18" class="line" id="border_134"/>
    <rect x="597" y="1285" width="11" height="18" class="line" id="border_135"/>
    <rect x="654" y="1286" width="13" height="18" class="line" id="border_136"/>
    <rect x="1159" y="1329" width="3" height="228" class="border" id="border_137"/>
    <rect x="480" y="1330" width="12" height="18" class="line" id="border_138"/>
    <rect x="1096" y="1331" width="10" height="29" class="line" id="border_139"/>
    <rect x="1193" y="1339" width="11" height="16" class="line" id="border_140"/>
    <rect x="130" y="1350" width="1" height="83" class="line" id="border_141"/>
    <rect x="128" y="1351" width="1" height="85" class="line" id="border_142"/>
    <rect x="1104" y="1371" width="3" height="178" class="border" id="border_143"/>
    <rect x="1162" y="1379" width="1" height="102" class="border" id="border_144"/>
    <rect x="1104" y="1494" width="2" height="138" class="border" id="border_145"/>
    <rect x="144" y="1538" width="2" height="54" class="line" id="border_146"/>
    <rect x="127" y="1539" width="10" height="38" class="line" id="border_147"/>
    <rect x="405" y="1541" width="199" height="3" class="border" id="border_148"/>
    <rect x="450" y="1544" width="208" height="3" class="border" id="border_149"/>
    <rect x="1164" y="1549" width="1" height="82" class="line" id="border_150"/>
    <rect x="1005" y="1550" width="113" height="1" class="border" id="border_151"/>
    <rect x="207" y="1578" width="61" height="1" class="line" id="border_152"/>
    <rect x="1095" y="1578" width="13" height="35" class="line" id="border_153"/>
    <rect x="182" y="1579" width="339" height="6" class="border" id="border_154"/>
    <rect x="148" y="1584" width="231" height="4" class="border" id="border_155"/>
    <rect x="1197" y="1585" width="11" height="16" class="line" id="border_156"/>
    <rect x="556" y="1586" width="11" height="12" class="line" id="border_157"/>
    <rect x="545" y="1591" width="177" height="3" class="border" id="border_158"/>
    <rect x="330" y="1592" width="139" height="2" class="border" id="border_159"/>
    <rect x="448" y="1595" width="118" height="2" class="border" id="border_160"/>
    <rect x="209" y="1617" width="112" height="2" class="border" id="border_161"/>
    <rect x="361" y="1618" width="53" height="1" class="line" id="border_162"/>
    <rect x="415" y="1620" width="68" height="1" class="line" id="border_163"/>
    <rect x="543" y="1624" width="204" height="3" class="border" id="border_164"/>
    <rect x="514" y="1625" width="60" height="1" class="line" id="border_165"/>
    <rect x="575" y="1627" width="168" height="2" class="border" id="border_166"/>
    <rect x="969" y="1628" width="71" height="1" class="line" id="border_167"/>
    <rect x="1113" y="1633" width="88" height="1" class="line" id="border_168"/>
  </g>
  <g id="title_group">
    <text x="384" y="31" class="title" id="title_0">pt. of Computer Science and Engin Computer Science and Engineering</text>
  </g>
  <g id="header_group">
    <text x="298" y="63" class="header" id="header_0">
      <tspan x="298" dy="0">&quot; | Dept. of Computer Science and Engineering (41 &amp; ML) &amp; Computer Science and</tspan>
      <tspan x="298" dy="12">Engineering (Cyber Security)</tspan>
    </text>
    <text x="201" y="86" class="header" id="header_1">Technology</text>
    <text x="93" y="88" class="header" id="header_2">institute</text>
  </g>
  <g id="table_cell_group">
    <text x="1081" y="221" class="table-cell" id="table_cell_0">&amp;</text>
    <text x="924" y="222" class="table-cell" id="table_cell_1">(AI&amp; ML)</text>
    <text x="557" y="228" class="table-cell" id="table_cell_2">Science</text>
    <text x="673" y="229" class="table-cell" id="table_cell_3">and</text>
    <text x="312" y="230" class="table-cell" id="table_cell_4">B</text>
    <text x="343" y="230" class="table-cell" id="table_cell_5">H</text>
    <text x="1040" y="267" class="table-cell" id="table_cell_6">Security)</text>
    <text x="926" y="270" class="table-cell" id="table_cell_7">(Cyber</text>
    <text x="560" y="273" class="table-cell" id="table_cell_8">Science</text>
    <text x="675" y="274" class="table-cell" id="table_cell_9">and</text>
    <text x="440" y="318" class="table-cell" id="table_cell_10">Internal</text>
    <text x="1044" y="401" class="table-cell" id="table_cell_11">Learming</text>
    <text x="169" y="402" class="table-cell" id="table_cell_12">3°¢</text>
    <text x="340" y="402" class="table-cell" id="table_cell_13">0a be</text>
    <text x="379" y="403" class="table-cell" id="table_cell_14">June</text>
    <text x="428" y="403" class="table-cell" id="table_cell_15">2025</text>
    <text x="743" y="403" class="table-cell" id="table_cell_16">NAME:</text>
    <text x="840" y="403" class="table-cell" id="table_cell_17">introduction</text>
    <text x="987" y="403" class="table-cell" id="table_cell_18">Deep</text>
    <text x="199" y="404" class="table-cell" id="table_cell_19">March</text>
    <text x="265" y="404" class="table-cell" id="table_cell_20">2025</text>
    <text x="87" y="405" class="table-cell" id="table_cell_21">TERM:</text>
    <text x="317" y="406" class="table-cell" id="table_cell_22">LO</text>
    <text x="962" y="406" class="table-cell" id="table_cell_23">LO</text>
    <text x="164" y="444" class="table-cell" id="table_cell_24">Q2A-04-2025</text>
    <text x="292" y="444" class="table-cell" id="table_cell_25">11:00AM</text>
    <text x="413" y="444" class="table-cell" id="table_cell_26">12:QQ0AM</text>
    <text x="853" y="444" class="table-cell" id="table_cell_27">(*16?</text>
    <text x="87" y="446" class="table-cell" id="table_cell_28">DATE:</text>
    <text x="385" y="447" class="table-cell" id="table_cell_29">ice)</text>
    <text x="83" y="481" class="table-cell" id="table_cell_30">MA)</text>
    <text x="247" y="485" class="table-cell" id="table_cell_31">30)</text>
    <text x="639" y="486" class="table-cell" id="table_cell_32">PORTIONS:</text>
    <text x="161" y="558" class="table-cell" id="table_cell_33">Mobile</text>
    <text x="234" y="558" class="table-cell" id="table_cell_34">Phones</text>
    <text x="341" y="559" class="table-cell" id="table_cell_35">banned</text>
    <text x="307" y="564" class="table-cell" id="table_cell_36">Aare</text>
    <text x="229" y="598" class="table-cell" id="table_cell_37">(‘andidates:</text>
    <text x="202" y="601" class="table-cell" id="table_cell_38">tO</text>
    <text x="538" y="601" class="table-cell" id="table_cell_39">full</text>
    <text x="1083" y="602" class="table-cell" id="table_cell_40">1Sx2=30)</text>
    <text x="492" y="603" class="table-cell" id="table_cell_41">two</text>
    <text x="447" y="606" class="table-cell" id="table_cell_42">any</text>
    <text x="1029" y="646" class="table-cell" id="table_cell_43">Biooms</text>
    <text x="75" y="697" class="table-cell" id="table_cell_44">QO.No</text>
    <text x="1115" y="701" class="table-cell" id="table_cell_45">(‘()</text>
    <text x="1168" y="702" class="table-cell" id="table_cell_46">Miarks</text>
    <text x="1036" y="718" class="table-cell" id="table_cell_47">(L1</text>
    <text x="1045" y="752" class="table-cell" id="table_cell_48">L6)</text>
    <text x="221" y="787" class="table-cell" id="table_cell_49">how</text>
    <text x="271" y="788" class="table-cell" id="table_cell_50">the</text>
    <text x="308" y="789" class="table-cell" id="table_cell_51">Perceptron</text>
    <text x="425" y="790" class="table-cell" id="table_cell_52">functions</text>
    <text x="551" y="791" class="table-cell" id="table_cell_53">the</text>
    <text x="587" y="791" class="table-cell" id="table_cell_54">basic</text>
    <text x="645" y="792" class="table-cell" id="table_cell_55">structural</text>
    <text x="746" y="792" class="table-cell" id="table_cell_56">element</text>
    <text x="832" y="792" class="table-cell" id="table_cell_57">in</text>
    <text x="858" y="792" class="table-cell" id="table_cell_58">bullding</text>
    <text x="948" y="792" class="table-cell" id="table_cell_59">neural</text>
    <text x="525" y="796" class="table-cell" id="table_cell_60">aS</text>
    <text x="136" y="816" class="table-cell" id="table_cell_61">networks</text>
    <text x="236" y="816" class="table-cell" id="table_cell_62">With</text>
    <text x="356" y="818" class="table-cell" id="table_cell_63">diagram.</text>
    <text x="307" y="820" class="table-cell" id="table_cell_64">neat</text>
    <text x="1115" y="820" class="table-cell" id="table_cell_65">C'Ol</text>
    <text x="321" y="823" class="table-cell" id="table_cell_66">ceeaeT fit:</text>
    <text x="238" y="826" class="table-cell" id="table_cell_67">YY iLIL cig</text>
    <text x="235" y="866" class="table-cell" id="table_cell_68">Categorical</text>
    <text x="360" y="868" class="table-cell" id="table_cell_69">(&quot;ross</text>
    <text x="425" y="869" class="table-cell" id="table_cell_70">Entropy</text>
    <text x="514" y="869" class="table-cell" id="table_cell_71">{eG</text>
    <text x="585" y="870" class="table-cell" id="table_cell_72">and</text>
    <text x="628" y="870" class="table-cell" id="table_cell_73">Binary</text>
    <text x="704" y="871" class="table-cell" id="table_cell_74">Cross-Entropy</text>
    <text x="859" y="871" class="table-cell" id="table_cell_75">(BCE).</text>
    <text x="938" y="871" class="table-cell" id="table_cell_76">For</text>
    <text x="981" y="871" class="table-cell" id="table_cell_77">the</text>
    <text x="138" y="894" class="table-cell" id="table_cell_78">given</text>
    <text x="272" y="895" class="table-cell" id="table_cell_79">of</text>
    <text x="392" y="896" class="table-cell" id="table_cell_80">activation</text>
    <text x="201" y="897" class="table-cell" id="table_cell_81">output</text>
    <text x="500" y="897" class="table-cell" id="table_cell_82">|0.7,0.1,0.2]</text>
    <text x="628" y="899" class="table-cell" id="table_cell_83">and</text>
    <text x="744" y="899" class="table-cell" id="table_cell_84">1 1,0,0],</text>
    <text x="823" y="899" class="table-cell" id="table_cell_85">(C‘alculate</text>
    <text x="925" y="900" class="table-cell" id="table_cell_86">the</text>
    <text x="964" y="900" class="table-cell" id="table_cell_87">(&quot;CH</text>
    <text x="669" y="901" class="table-cell" id="table_cell_88">tragets</text>
    <text x="1115" y="914" class="table-cell" id="table_cell_89">('O2</text>
    <text x="138" y="923" class="table-cell" id="table_cell_90">LOSS.</text>
    <text x="225" y="973" class="table-cell" id="table_cell_91">the</text>
    <text x="324" y="973" class="table-cell" id="table_cell_92">involved</text>
    <text x="421" y="974" class="table-cell" id="table_cell_93">in</text>
    <text x="448" y="974" class="table-cell" id="table_cell_94">how</text>
    <text x="265" y="976" class="table-cell" id="table_cell_95">steps</text>
    <text x="666" y="977" class="table-cell" id="table_cell_96">Neural</text>
    <text x="743" y="977" class="table-cell" id="table_cell_97">Network</text>
    <text x="841" y="978" class="table-cell" id="table_cell_98">(CNN)</text>
    <text x="920" y="978" class="table-cell" id="table_cell_99">classifies</text>
    <text x="139" y="1001" class="table-cell" id="table_cell_100">image</text>
    <text x="208" y="1001" class="table-cell" id="table_cell_101">data.</text>
    <text x="139" y="1051" class="table-cell" id="table_cell_102">Ditterentiate</text>
    <text x="277" y="1052" class="table-cell" id="table_cell_103">Biological</text>
    <text x="388" y="1053" class="table-cell" id="table_cell_104">Neuron</text>
    <text x="473" y="1053" class="table-cell" id="table_cell_105">and</text>
    <text x="515" y="1053" class="table-cell" id="table_cell_106">Artificial</text>
    <text x="612" y="1054" class="table-cell" id="table_cell_107">Neuron.</text>
    <text x="1116" y="1073" class="table-cell" id="table_cell_108">( OT]</text>
    <text x="215" y="1101" class="table-cell" id="table_cell_109">the</text>
    <text x="253" y="1102" class="table-cell" id="table_cell_110">update</text>
    <text x="328" y="1102" class="table-cell" id="table_cell_111">rule</text>
    <text x="375" y="1102" class="table-cell" id="table_cell_112">for</text>
    <text x="412" y="1102" class="table-cell" id="table_cell_113">(sradient</text>
    <text x="505" y="1103" class="table-cell" id="table_cell_114">Descent</text>
    <text x="592" y="1104" class="table-cell" id="table_cell_115">used</text>
    <text x="670" y="1104" class="table-cell" id="table_cell_116">minimize</text>
    <text x="644" y="1106" class="table-cell" id="table_cell_117">to</text>
    <text x="791" y="1106" class="table-cell" id="table_cell_118">oiven</text>
    <text x="854" y="1106" class="table-cell" id="table_cell_119">loss</text>
    <text x="901" y="1107" class="table-cell" id="table_cell_120">function.</text>
    <text x="1116" y="1124" class="table-cell" id="table_cell_121">( (2</text>
    <text x="141" y="1152" class="table-cell" id="table_cell_122">W hat</text>
    <text x="202" y="1152" class="table-cell" id="table_cell_123">is</text>
    <text x="226" y="1152" class="table-cell" id="table_cell_124">Pooling</text>
    <text x="312" y="1152" class="table-cell" id="table_cell_125">Operation</text>
    <text x="420" y="1152" class="table-cell" id="table_cell_126">in</text>
    <text x="517" y="1153" class="table-cell" id="table_cell_127">Pertorm</text>
    <text x="655" y="1154" class="table-cell" id="table_cell_128">pooling</text>
    <text x="739" y="1156" class="table-cell" id="table_cell_129">and</text>
    <text x="868" y="1158" class="table-cell" id="table_cell_130">pooling</text>
    <text x="606" y="1159" class="table-cell" id="table_cell_131">Mak</text>
    <text x="953" y="1159" class="table-cell" id="table_cell_132">tor</text>
    <text x="782" y="1162" class="table-cell" id="table_cell_133">aveTagpe</text>
    <text x="140" y="1181" class="table-cell" id="table_cell_134">the</text>
    <text x="179" y="1181" class="table-cell" id="table_cell_135">given</text>
    <text x="241" y="1181" class="table-cell" id="table_cell_136">feature</text>
    <text x="369" y="1181" class="table-cell" id="table_cell_137">in</text>
    <text x="395" y="1181" class="table-cell" id="table_cell_138">Fig.2c.</text>
    <text x="473" y="1182" class="table-cell" id="table_cell_139">DY</text>
    <text x="645" y="1183" class="table-cell" id="table_cell_140">pee</text>
    <text x="691" y="1184" class="table-cell" id="table_cell_141">Window</text>
    <text x="785" y="1185" class="table-cell" id="table_cell_142">with</text>
    <text x="838" y="1186" class="table-cell" id="table_cell_143">Stride</text>
    <text x="318" y="1187" class="table-cell" id="table_cell_144">Map</text>
    <text x="585" y="1344" class="table-cell" id="table_cell_145">La</text>
    <text x="644" y="1344" class="table-cell" id="table_cell_146">1?</text>
    <text x="1118" y="1352" class="table-cell" id="table_cell_147">('O3</text>
    <text x="484" y="1389" class="table-cell" id="table_cell_148">13 14</text>
    <text x="548" y="1460" class="table-cell" id="table_cell_149">Fig.2c</text>
    <text x="239" y="1556" class="table-cell" id="table_cell_150">the</text>
    <text x="284" y="1557" class="table-cell" id="table_cell_151">Softtmax</text>
    <text x="90" y="1559" class="table-cell" id="table_cell_152">4.2</text>
    <text x="382" y="1560" class="table-cell" id="table_cell_153">and</text>
    <text x="431" y="1561" class="table-cell" id="table_cell_154">ReLU</text>
    <text x="507" y="1562" class="table-cell" id="table_cell_155">activation</text>
    <text x="620" y="1564" class="table-cell" id="table_cell_156">functions</text>
    <text x="729" y="1565" class="table-cell" id="table_cell_157">with</text>
    <text x="788" y="1566" class="table-cell" id="table_cell_158">graph</text>
    <text x="243" y="1584" class="table-cell" id="table_cell_159">the</text>
    <text x="147" y="1586" class="table-cell" id="table_cell_160">Illustrate</text>
    <text x="365" y="1587" class="table-cell" id="table_cell_161">of</text>
    <text x="393" y="1588" class="table-cell" id="table_cell_162">dead</text>
    <text x="647" y="1590" class="table-cell" id="table_cell_163">network.</text>
    <text x="533" y="1592" class="table-cell" id="table_cell_164">in</text>
    <text x="576" y="1594" class="table-cell" id="table_cell_165">neural</text>
    <text x="446" y="1595" class="table-cell" id="table_cell_166">heurons</text>
  </g>
  <g id="other_text_group">
    <text x="736" y="227" class="other-text" id="other_text_0">Engineering</text>
    <text x="119" y="230" class="other-text" id="other_text_1">Programme:</text>
    <text x="739" y="272" class="other-text" id="other_text_2">Engineering</text>
    <text x="567" y="318" class="other-text" id="other_text_3">Assessment</text>
    <text x="235" y="562" class="other-text" id="other_text_4">MrnOnec are nannasst</text>
    <text x="162" y="567" class="other-text" id="other_text_5">IY EVJLJS IEW 2 LINEN O</text>
    <text x="859" y="1566" class="other-text" id="other_text_6">representations.</text>
  </g>
  <g id="table_header_group">
    <text x="400" y="229" class="table-header" id="table_header_0">Computer</text>
    <text x="402" y="274" class="table-header" id="table_header_1">Computer</text>
    <text x="640" y="403" class="table-header" id="table_header_2">COURSE</text>
    <text x="640" y="444" class="table-header" id="table_header_3">COURSE</text>
    <text x="744" y="445" class="table-header" id="table_header_4">CODE :</text>
    <text x="150" y="481" class="table-header" id="table_header_5">MARKS</text>
    <text x="1002" y="601" class="table-header" id="table_header_6">Marks:</text>
    <text x="581" y="602" class="table-header" id="table_header_7">questions.</text>
    <text x="1030" y="678" class="table-header" id="table_header_8">Levels</text>
    <text x="525" y="694" class="table-header" id="table_header_9">Questions</text>
    <text x="1074" y="720" class="table-header" id="table_header_10">CO</text>
    <text x="517" y="975" class="table-header" id="table_header_11">(Convolutional</text>
    <text x="447" y="1153" class="table-header" id="table_header_12">CONN’?</text>
    <text x="504" y="1182" class="table-header" id="table_header_13">considering</text>
    <text x="281" y="1589" class="table-header" id="table_header_14">concept</text>
    <text x="1121" y="1597" class="table-header" id="table_header_15">CO!</text>
  </g>
  <g id="question_number_group">
    <text x="786" y="486" class="question-number" id="question_number_0">1.1-L276</text>
    <text x="85" y="1051" class="question-number" id="question_number_1">2.a</text>
    <text x="1055" y="1351" class="question-number" id="question_number_2">1.3</text>
  </g>
  <g id="instructions_group">
    <text x="77" y="598" class="instructions" id="instructions_0">Instructions</text>
    <text x="356" y="600" class="instructions" id="instructions_1">Answer</text>
  </g>
  <g id="question_text_group">
    <text x="136" y="787" class="question-text" id="question_text_0">Discuss</text>
    <text x="137" y="866" class="question-text" id="question_text_1">Describe</text>
    <text x="138" y="972" class="question-text" id="question_text_2">Explain</text>
    <text x="140" y="1101" class="question-text" id="question_text_3">Derive</text>
    <text x="146" y="1555" class="question-text" id="question_text_4">Explain</text>
  </g>
  <g id="marks_group">
    <text x="1051" y="818" class="marks" id="marks_0">12</text>
    <text x="1051" y="912" class="marks" id="marks_1">13</text>
    <text x="1050" y="1005" class="marks" id="marks_2">12</text>
    <text x="1051" y="1070" class="marks" id="marks_3">12</text>
    <text x="1052" y="1121" class="marks" id="marks_4">13</text>
    <text x="528" y="1343" class="marks" id="marks_5">14</text>
    <text x="585" y="1389" class="marks" id="marks_6">15</text>
    <text x="644" y="1390" class="marks" id="marks_7">16</text>
  </g>
  <g id="text_block_group">
    <text x="440" y="1107" class="text-block" id="text_block_0">AYIIeTNT | PPCM AaNT yworAarrti Trt wate oh Oe eee tl ree</text>
    <text x="507" y="1115" class="text-block" id="text_block_1">Rr FO EY LAAN Ch MIL YUU TCI SS UTLLEE TLC TCD</text>
    <text x="281" y="1596" class="text-block" id="text_block_2">Wwh/JELIWWLEL FJ Liftcucdt i Fieri irTnyne im &amp; Weel Mm eee rr el,</text>
  </g>
  <g id="classification_group">
    <text x="1056" y="1594" class="classification" id="classification_0">L2</text>
  </g>
</svg>